Coordinates
version=1
nRows=19
nColumns=24
inDegrees=yes

Units are S.I. units (second, meters, Newtons, ...)
Angles are in degrees.

endheader
time	pelvis_tilt	pelvis_list	pelvis_rotation	pelvis_tx	pelvis_ty	pelvis_tz	hip_flexion_r	hip_adduction_r	hip_rotation_r	knee_angle_r	ankle_angle_r	subtalar_angle_r	mtp_angle_r	hip_flexion_l	hip_adduction_l	hip_rotation_l	knee_angle_l	ankle_angle_l	subtalar_angle_l	mtp_angle_l	lumbar_extension	lumbar_bending	lumbar_rotation
      2.93500000	     -8.09768767	     -6.02674948	      5.99682085	     -1.68049114	     -0.03978265	      0.66814849	     31.37939410	      3.29252147	     -0.28723477	    -35.38326447	      2.89258807	     -2.65676878	     17.12447367	     14.11999525	     -5.26056804	      3.90486589	    -61.72774905	    -18.29679901	      1.93774513	     19.43154080	      7.40288446	     13.21131067	     -9.98025626
      2.94000000	     -8.01986955	     -6.07033835	      5.91568133	     -1.67350478	     -0.03863789	      0.66885200	     30.71556035	      3.48571622	     -0.29370838	    -35.18097955	      3.46523128	     -2.44986532	     16.13010589	     15.13894410	     -5.28374795	      3.77330947	    -62.91389644	    -18.36019061	      2.76489437	     22.92426171	      7.29464647	     13.27323232	     -9.68957434
      2.94500000	     -7.99701390	     -6.10726275	      5.77385566	     -1.66653594	     -0.03747360	      0.66960670	     30.08393623	      3.70105078	     -0.21634249	    -34.87646200	      3.73404712	     -2.52432459	     16.09319852	     16.21228815	     -5.32781641	      3.53197733	    -64.05204747	    -18.30092409	      3.50988275	     25.46546264	      7.23729943	     13.32700661	     -9.34082486
      2.95000000	     -7.92880506	     -6.03720815	      5.62312648	     -1.65963125	     -0.03617032	      0.67034368	     29.38609164	      3.81258860	     -0.08313315	    -34.56290131	      4.04077784	     -2.49472719	     16.08613136	     17.18868959	     -5.25962947	      3.27769315	    -65.04406205	    -18.32837073	      4.18574707	     27.85437276	      7.10960143	     13.27107360	     -8.96028277
      2.95500000	     -7.87906066	     -5.97718275	      5.46809927	     -1.65269131	     -0.03484402	      0.67109632	     28.68361587	      3.93096498	      0.03253224	    -34.20248735	      4.32196337	     -2.51725121	     16.05404369	     18.17953430	     -5.22373380	      2.98798160	    -65.96844005	    -18.29346810	      4.78617164	     29.55687894	      7.01688834	     13.21717811	     -8.58849035
      2.96000000	     -7.80045722	     -5.91375996	      5.33155219	     -1.64574448	     -0.03348965	      0.67165417	     27.92285732	      4.01660729	      0.15835406	    -33.80121089	      4.65457817	     -2.37570027	     16.11042307	     19.12968251	     -5.17043713	      2.66215910	    -66.86034638	    -17.97223631	      5.13895620	     30.01693368	      6.90783311	     13.17533887	     -8.24380512
      2.96500000	     -7.77069959	     -5.88029564	      5.14299561	     -1.63884456	     -0.03217455	      0.67242342	     27.21115360	      4.17577003	      0.35882918	    -33.37221653	      4.87659683	     -2.43516322	     16.02814335	     20.12081972	     -5.19292789	      2.31887898	    -67.65069816	    -17.73339920	      5.53147974	     30.64083008	      6.84023420	     13.14681886	     -7.86703182
      2.97000000	     -7.74470320	     -5.82163766	      5.01064315	     -1.63198573	     -0.03082332	      0.67324392	     26.49303183	      4.29868622	      0.52558973	    -32.94193115	      5.13259784	     -2.59670758	     15.44917324	     21.09617274	     -5.18438478	      2.03320095	    -68.25459685	    -17.93799970	      5.60316358	     32.22383207	      6.78488657	     13.06432735	     -7.60518430
      2.97500000	     -7.70258993	     -5.79462229	      4.84639505	     -1.62514202	     -0.02952196	      0.67391346	     25.74471348	      4.43473333	      0.69092003	    -32.46359395	      5.34061724	     -2.64822626	     15.36068438	     22.05419180	     -5.21096640	      1.68232017	    -68.87594925	    -17.72433265	      5.55234916	     32.38505433	      6.70927994	     13.04336648	     -7.28233065
      2.98000000	     -7.69410778	     -5.76310576	      4.65479974	     -1.61824039	     -0.02823785	      0.67467097	     25.00953797	      4.59306993	      0.93758394	    -31.95114227	      5.49509842	     -2.83478999	     15.10941777	     23.01169433	     -5.24415366	      1.32135724	    -69.39109295	    -17.49576096	      5.40770391	     32.49081142	      6.67949001	     13.01060296	     -6.91666817
      2.98500000	     -7.66634632	     -5.74454157	      4.52838006	     -1.61134375	     -0.02696854	      0.67529071	     24.23318545	      4.72101197	      1.14225517	    -31.40460271	      5.69517642	     -2.86661132	     15.00528172	     23.94304147	     -5.25820883	      1.03958197	    -69.82401689	    -17.25599890	      5.18150329	     32.56739783	      6.65153427	     12.98373888	     -6.70232444
      2.99000000	     -7.67350156	     -5.70507116	      4.26857333	     -1.60447651	     -0.02578635	      0.67618096	     23.50401836	      4.91013877	      1.52143324	    -30.88542291	      5.89803225	     -3.08140406	     14.42202207	     24.87910285	     -5.32350558	      0.62706956	    -70.19778423	    -16.97168796	      4.92948594	     32.31287847	      6.61662445	     12.94164454	     -6.28757082
      2.99500000	     -7.65933002	     -5.71870277	      4.09736699	     -1.59754990	     -0.02461281	      0.67682605	     22.72737430	      5.06950658	      1.70101152	    -30.30045984	      6.07121956	     -3.13226530	     14.28331537	     25.78156119	     -5.39597504	      0.33029433	    -70.47484917	    -16.71738214	      4.57314467	     32.29470936	      6.60269764	     12.95863752	     -6.02473900
      3.00000000	     -7.66118850	     -5.68836626	      3.86161856	     -1.59069683	     -0.02347146	      0.67761040	     21.97072896	      5.23321345	      2.04655647	    -29.72333164	      6.17085179	     -3.37160702	     13.94980217	     26.66526807	     -5.44443640	     -0.00604867	    -70.67128842	    -16.41361663	      4.20590373	     32.07605016	      6.56899782	     12.92824032	     -5.63001980
      3.00500000	     -7.65119611	     -5.67156509	      3.63423274	     -1.58380994	     -0.02237426	      0.67836268	     21.18682883	      5.39429176	      2.37778041	    -29.12434077	      6.31689306	     -3.52392810	     13.59452751	     27.51781854	     -5.50863393	     -0.31058107	    -70.79964446	    -16.07381827	      3.89667467	     31.76503883	      6.53309566	     12.91405767	     -5.29276694
      3.01000000	     -7.63884407	     -5.63835321	      3.40185315	     -1.57694017	     -0.02130835	      0.67912654	     20.39490838	      5.53525454	      2.72704909	    -28.51629558	      6.45760961	     -3.69332250	     13.18786116	     28.34246922	     -5.55713013	     -0.60002049	    -70.84959267	    -15.71471005	      3.61372529	     31.34129282	      6.48952620	     12.87885151	     -4.96233731
      3.01500000	     -7.61955252	     -5.58806205	      3.16856732	     -1.57008402	     -0.02028263	      0.67987446	     19.59284512	      5.64977601	      3.08330087	    -27.90687862	      6.60822870	     -3.84466513	     12.73343510	     29.13388500	     -5.58653485	     -0.87386292	    -70.82655493	    -15.30494483	      3.37235514	     30.76307458	      6.43219985	     12.82637324	     -4.62576951
      3.02000000	     -7.59841002	     -5.52890307	      2.93399532	     -1.56323730	     -0.01930312	      0.68061489	     18.78499941	      5.74494395	      3.44216575	    -27.28996572	      6.76414734	     -3.96637515	     12.29888525	     29.90037117	     -5.60870815	     -1.13528262	    -70.72899609	    -14.88381001	      3.14366287	     30.07585291	      6.36889218	     12.76164552	     -4.30591159
      3.02500000	     -7.57553278	     -5.44592258	      2.70433552	     -1.55641240	     -0.01837122	      0.68133146	     17.97617498	      5.80331095	      3.80313896	    -26.67430258	      6.91718061	     -4.07527964	     11.89694082	     30.63911574	     -5.60313513	     -1.38439564	    -70.55400478	    -14.43305487	      2.94182851	     29.28535892	      6.29923837	     12.67118272	     -3.98657496
